# xmcd
#
# Track frame offsets: 
#        151
#        15396
#        33567
#        48732
#        67815
#        83216
#        100339
#        116340
#        131375
#        147530
#        164199
#        180424
#        196187
#        209792
#        227821
#        243750
#
# Disc length: 3458 seconds
#
# Revision: 0
# Processed by: cddbd v1.5.2PL0 Copyright (c) Steve Scherf et al.
# Submitted via: ExactAudioCopy v0.99pb5
#
DISCID=df0d8010
DTITLE=พุ่มพวง ดวงจันทร์ - ตำนานเพลงลูกทุ่ง ชุดที่ ๑
DYEAR=2005
DGENRE=Country
TTITLE0=โลกของผึ้ง
TTITLE1=กล่อม
TTITLE2=สยามเมืองยิ้ม
TTITLE3=นักร้องบ้านนอก
TTITLE4=แก้วรอพี่
TTITLE5=หม้ายขันหมาก
TTITLE6=อายแสงนีออน
TTITLE7=อนิจจาทิงเจอร์
TTITLE8=หัวใจถวายวัด
TTITLE9=ความรักเหมือนยาขม
TTITLE10=ทุ่งนางคอย
TTITLE11=เสียสาวเมื่ออยู่ ม.ศ.
TTITLE12=ดาวเรืองดาวโรย
TTITLE13=บทเรียนราคาแพง
TTITLE14=พาร์ตเนอร์เบอร์ห้า
TTITLE15=พี่ จ. หลายใจ
EXTD=
EXTT0=
EXTT1=
EXTT2=
EXTT3=
EXTT4=
EXTT5=
EXTT6=
EXTT7=
EXTT8=
EXTT9=
EXTT10=
EXTT11=
EXTT12=
EXTT13=
EXTT14=
EXTT15=
PLAYORDER=
